# xmcd CD database file
# Copyright (C) 1997 Ti Kan
# 
# Track frame offsets:
#     150
#     16680
#     34840
#     56465
#     82302
#     99177
#     121290
#     135712
#     152535
# 
# Disc length: 2184 seconds
# 
# Revision: 1
# Processed by: cddbd v1.4b41PL1 Copyright (c) Steve Scherf et al.
# Submitted via: DiscPlay 4.0.4
# 
DISCID=66088609
DTITLE=Sonny Rhodes and The Texas Twisters - Just Blues
DYEAR=1900
DGENRE=
TTITLE0=I Can't Lost
TTITLE1=The Things I Used To Do
TTITLE2=Please Love Me
TTITLE3=House Without Love
TTITLE4=Think
TTITLE5=Cigarette Blues
TTITLE6=Strange Things Happening
TTITLE7=It Hurts Me Too
TTITLE8=East Oakland Stomp
EXTD=
EXTT0=
EXTT1=
EXTT2=
EXTT3=
EXTT4=
EXTT5=
EXTT6=
EXTT7=
EXTT8=
PLAYORDER=
